HIERARCHY
ROOT Hips
{
	OFFSET -0.001795 -0.223333 0.028219
	CHANNELS 6 Xposition Yposition Zposition Zrotation Yrotation Xrotation 
	JOINT LeftUpLeg
	{
		OFFSET 0.069520 -0.091406 -0.006815
		CHANNELS 3 Zrotation Yrotation Xrotation
		JOINT LeftLeg
		{
			OFFSET 0.034277 -0.375199 -0.004496
			CHANNELS 3 Zrotation Yrotation Xrotation
			JOINT LeftFoot
			{
				OFFSET -0.013596 -0.397961 -0.043693
				CHANNELS 3 Zrotation Yrotation Xrotation
				JOINT LeftToe
				{
					OFFSET 0.026358 -0.055791 0.119288
					CHANNELS 3 Zrotation Yrotation Xrotation
					End Site
					{
						OFFSET 0.000000 0.000000 0.000000
					}
				}
			}
		}
	}
	JOINT RightUpLeg
	{
		OFFSET -0.067670 -0.090522 -0.004320
		CHANNELS 3 Zrotation Yrotation Xrotation
		JOINT RightLeg
		{
			OFFSET -0.038290 -0.382569 -0.008850
			CHANNELS 3 Zrotation Yrotation Xrotation
			JOINT RightFoot
			{
				OFFSET 0.015774 -0.398415 -0.042312
				CHANNELS 3 Zrotation Yrotation Xrotation
				JOINT RightToe
				{
					OFFSET -0.025372 -0.048144 0.123348
					CHANNELS 3 Zrotation Yrotation Xrotation
					End Site
					{
						OFFSET 0.000000 0.000000 0.000000
					}
				}
			}
		}
	}
	JOINT Spine
	{
		OFFSET -0.002533 0.108963 -0.026696
		CHANNELS 3 Zrotation Yrotation Xrotation
		JOINT Spine1
		{
			OFFSET 0.005487 0.135180 0.001092
			CHANNELS 3 Zrotation Yrotation Xrotation
			JOINT Spine2
			{
				OFFSET 0.001457 0.052922 0.025425
				CHANNELS 3 Zrotation Yrotation Xrotation
				JOINT Neck
				{
					OFFSET -0.002778 0.213870 -0.042857
					CHANNELS 3 Zrotation Yrotation Xrotation
					JOINT Head
					{
						OFFSET 0.005152 0.064970 0.051349
						CHANNELS 3 Zrotation Yrotation Xrotation
						End Site
						{
							OFFSET 0.000000 0.000000 0.000000
						}
					}
				}
				JOINT LeftShoulder
				{
					OFFSET 0.078845 0.121749 -0.034090
					CHANNELS 3 Zrotation Yrotation Xrotation
					JOINT LeftArm
					{
						OFFSET 0.090977 0.030469 -0.008868
						CHANNELS 3 Zrotation Yrotation Xrotation
						JOINT LeftForeArm
						{
							OFFSET 0.259612 -0.012772 -0.027456
							CHANNELS 3 Zrotation Yrotation Xrotation
							JOINT LeftHand
							{
								OFFSET 0.249234 0.008986 -0.001171
								CHANNELS 3 Zrotation Yrotation Xrotation
								End Site
								{
									OFFSET 0.000000 0.000000 0.000000
								}
							}
						}
					}
				}
				JOINT RightShoulder
				{
					OFFSET -0.081759 0.118833 -0.038615
					CHANNELS 3 Zrotation Yrotation Xrotation
					JOINT RightArm
					{
						OFFSET -0.096012 0.032551 -0.009143
						CHANNELS 3 Zrotation Yrotation Xrotation
						JOINT RightForeArm
						{
							OFFSET -0.253742 -0.013329 -0.021401
							CHANNELS 3 Zrotation Yrotation Xrotation
							JOINT RightHand
							{
								OFFSET -0.255298 0.007772 -0.005559
								CHANNELS 3 Zrotation Yrotation Xrotation
								End Site
								{
									OFFSET 0.000000 0.000000 0.000000
								}
							}
						}
					}
				}
			}
		}
	}
}
MOTION
Frames: 6
Frame Time: 0.050000
0.000000 0.940158 0.000000 0.137305 -2.759366 5.175028 -2.665543 0.195697 1.191573 0.543656 0.155566 -5.512843 0.326844 3.180669 6.660866 0.000000 0.000000 0.000000 2.054016 0.218527 -2.612575 -2.299444 0.087323 -2.335238 5.487769 9.254481 6.078162 0.000000 0.000000 0.000000 6.222976 -0.055423 -1.049050 -0.964195 0.440984 3.181212 -2.206060 0.696824 3.742495 6.044496 -2.117344 -18.913434 0.000000 0.000000 0.000000 -27.640041 -10.838918 4.251248 -26.601043 1.910845 -3.365830 11.777697 -16.940391 -1.068697 0.000000 0.000000 0.000000 23.893621 5.775191 1.011474 29.174688 -1.871808 -3.015821 -11.286057 21.092578 -1.205920 0.000000 0.000000 0.000000 
-0.002176 0.938293 0.003055 -0.235566 -3.229405 5.697412 -1.720041 0.201491 1.516909 -0.309709 0.248647 -6.618086 0.549616 3.460265 6.361786 0.000000 0.000000 0.000000 2.399657 0.333471 -3.666312 -2.024046 0.133970 -1.096305 5.420245 9.701362 5.235049 0.000000 0.000000 0.000000 7.023157 -0.092934 -0.918343 -1.417404 0.678220 3.940122 -3.408525 1.642368 2.901669 8.159776 -2.838972 -21.092347 0.000000 0.000000 0.000000 -26.469433 -11.972762 4.522902 -28.133782 2.345660 -3.513237 13.768805 -16.325468 -1.329606 0.000000 0.000000 0.000000 25.373305 4.230338 0.327453 29.505828 -2.698375 -3.266582 -11.764973 21.995106 -1.312547 0.000000 0.000000 0.000000 
-0.004952 0.936644 0.006529 -0.495043 -3.020068 5.750927 -1.353357 0.187736 1.507627 -0.103941 0.223577 -6.248791 0.655140 3.408842 5.553362 0.000000 0.000000 0.000000 2.902934 0.371622 -4.000162 -2.050689 0.196288 -0.080687 5.079388 9.602408 4.343569 0.000000 0.000000 0.000000 7.850598 -0.158836 -0.473499 -2.214695 1.065666 1.974534 -3.499384 1.387188 4.920755 8.100036 -2.864934 -21.352612 0.000000 0.000000 0.000000 -25.523483 -12.347128 4.934019 -29.840360 2.691011 -3.953686 13.660456 -16.269952 -1.297296 0.000000 0.000000 0.000000 25.822526 5.642507 1.171212 30.495116 -3.404108 -3.622250 -11.672584 22.563940 -1.343534 0.000000 0.000000 0.000000 
-0.008762 0.935957 0.010878 -0.581233 -3.319053 6.070945 -0.914367 0.182739 1.610583 -0.375729 0.247019 -6.457357 0.807364 3.645757 5.455593 0.000000 0.000000 0.000000 3.073536 0.440563 -4.587519 -1.812770 0.226202 0.878622 5.051612 9.888018 3.873391 0.000000 0.000000 0.000000 7.890553 -0.177212 -0.385285 -2.481301 1.203250 2.276928 -3.443129 1.691644 4.129494 8.143157 -2.626788 -22.731148 0.000000 0.000000 0.000000 -26.804952 -12.951151 5.254421 -30.372567 3.510321 -4.133158 14.331315 -16.075144 -1.378661 0.000000 0.000000 0.000000 27.309034 5.368195 0.974170 30.554305 -5.002878 -3.932032 -11.482905 23.537008 -1.375020 0.000000 0.000000 0.000000 
-0.013350 0.934627 0.015740 -0.826012 -2.713360 5.970810 -0.222804 0.183749 1.891092 -0.445165 0.240898 -6.196578 0.687339 3.235400 4.801965 0.000000 0.000000 0.000000 3.447231 0.405953 -4.286337 -1.332892 0.197004 1.255098 4.704755 9.520338 3.313213 0.000000 0.000000 0.000000 8.115688 -0.179301 -0.409756 -2.403319 1.163459 2.787568 -3.627092 0.943132 3.633647 8.084824 -2.671528 -22.389799 0.000000 0.000000 0.000000 -27.384719 -12.859817 5.342036 -31.239016 3.593491 -4.285309 14.171289 -16.579038 -1.391826 0.000000 0.000000 0.000000 27.458034 6.283494 1.388302 31.644151 -4.985152 -4.012763 -10.777867 23.100606 -1.230737 0.000000 0.000000 0.000000 
-0.018531 0.933171 0.021255 -0.943434 -2.788923 5.713508 -0.179183 0.175656 1.824875 0.273761 0.146832 -4.834101 1.002634 3.520274 3.836958 0.000000 0.000000 0.000000 3.275115 0.343753 -3.788140 -0.200256 0.087371 1.581668 4.670396 9.799086 2.844724 0.000000 0.000000 0.000000 7.948943 -0.225990 0.100273 -2.685750 1.313363 3.274971 -3.273119 0.505881 2.824046 7.663543 -2.358133 -23.206125 0.000000 0.000000 0.000000 -27.798557 -13.173709 5.733972 -33.129526 3.331304 -4.505672 13.899039 -17.201062 -1.393960 0.000000 0.000000 0.000000 27.726828 6.759411 1.446241 33.429315 -5.113027 -4.186844 -10.479505 24.189952 -1.266598 0.000000 0.000000 0.000000 
